<svg id="图层_1" data-name="图层 1" xmlns="http://www.w3.org/2000/svg" viewBox="0 0 434.28 123.29"><defs><style>.cls-1{fill:#565656;}.cls-2{fill:#d63030;}.cls-2,.cls-3{fill-rule:evenodd;}.cls-3{fill:#fff;}</style></defs><title>logo6.23</title><polygon class="cls-1" points="161.5 98.54 173.49 98.54 173.49 66.73 201.35 66.73 201.35 55.98 173.49 55.98 173.49 35.49 205.21 35.49 205.21 24.74 161.5 24.74 161.5 98.54"/><path class="cls-1" d="M487.08,357.87l-10.15-4.31c-6-2.59-10.32-4.84-10.32-10.19s4.4-8.63,11.48-8.63a20.46,20.46,0,0,1,14.69,6.1l1.58,1.51,6.74-8.12-1.24-1.31a30,30,0,0,0-21.77-9.21c-13.66,0-23.57,8.51-23.57,20.23,0,13,11.62,18,15.41,19.58L480,368c7,3.11,10.69,5,10.69,11,0,6.14-5.09,10-13.29,10a24.91,24.91,0,0,1-18-8.21l-1.54-1.65-7.48,8.52,1.27,1.35a34.42,34.42,0,0,0,25.68,11c15,0,25.47-8.87,25.47-21.57C502.8,366.42,494.87,361.3,487.08,357.87Z" transform="translate(-244.74 -300.2)"/><path class="cls-1" d="M598.22,377.26l-1.13-.33a64.13,64.13,0,0,1-6.47-2.39l-1.6-.67-.24,1.72a82.1,82.1,0,0,1-2.31,11.58,3.91,3.91,0,0,1-1.89,2.48c-1.29.65-3.24.53-5.81-.36-8.42-2.62-12.87-12.59-13.24-29.64,8.13,4.25,15.71,8.52,22.53,12.7l1.15.71,5.2-8.68-1.27-.65c-7.07-3.65-14.56-7.29-22.27-10.83l20.54-14.59,1.28-.91L585,329.56l-1,1a208.22,208.22,0,0,1-18.56,15.94c0-6,.13-12.13.31-18.11l0-1.38H517.15v8.5h39.1c0,9.05,0,16.82.09,23.09.43,19.78,5.54,32.51,15.23,37.84A30.09,30.09,0,0,0,585,399.3c4.41,0,7.61-2.35,9.52-7A74,74,0,0,0,598,378.43Z" transform="translate(-244.74 -300.2)"/><path class="cls-1" d="M612.19,344.07l.75,1.18,7.82-5.51-.77-1.09c-4.66-6.65-8.38-11.68-11.08-15l-.77-.94-7.22,4.85.85,1.13C604.48,332.3,608,337.46,612.19,344.07Z" transform="translate(-244.74 -300.2)"/><path class="cls-1" d="M677.11,390.88c-8.54.21-16.71.34-24.29.39V375.06c5.92,3.35,12.23,7.3,18.77,11.73l1.13.77,5.12-7.91-1.21-.71c-7.19-4.2-14.75-8.47-22.45-12.68l0,0h18.41V343.43H652.82v-5h24.71v-8.11H652.82v-8.58h-8.5v8.58H620.87v8.11h23.45v5H624.57v22.82h15.92A84.88,84.88,0,0,1,619,381.11l-1.62.8,1.25,1.31a38,38,0,0,1,4.1,4.93l.7,1.07,1.1-.66a96.06,96.06,0,0,0,19.78-15.63V391.3c-4.71,0-9.07,0-13-.1-7.18,0-12.13-2.31-15.12-6.92V349.65h-18.1v8.5h9.37v24.6c-2.1,2-5.27,5-9.67,9.22l-.7.68,4.58,9.26,1.32-1.6c3.39-4.13,6.14-7.25,8.17-9.3,3.92,5.51,10.29,8.35,18.93,8.45,12.42.31,27.5.42,44.82.32h.93l.32-.87c.91-2.45,1.65-4.56,2.22-6.26l.6-1.81Zm-32.79-39.66v7.24H632.91v-7.24Zm8.5,7.24v-7.24h11.41v7.24Z" transform="translate(-244.74 -300.2)"/><path class="cls-2" d="M297.95,342.46a11.43,11.43,0,1,1,0-22.87h53.24a62,62,0,1,0,13.31,21.84,11.35,11.35,0,0,1-4.69,1H297.95ZM308.74,404H287.49a8.07,8.07,0,0,1,0-16.14h21.24a8.07,8.07,0,0,1,0,16.14Zm23.35-29.25H293a9.74,9.74,0,0,1,0-19.49h39a9.74,9.74,0,0,1,0,19.49Z" transform="translate(-244.74 -300.2)"/><path class="cls-2" d="M371.23,331a11.44,11.44,0,0,0-11.43-11.43h-8.61a61.53,61.53,0,0,1,13.31,21.84A11.42,11.42,0,0,0,371.23,331Z" transform="translate(-244.74 -300.2)"/><path class="cls-3" d="M364.49,341.47a61.51,61.51,0,0,0-13.31-21.84H297.95a11.43,11.43,0,1,0,0,22.87h61.85A11.35,11.35,0,0,0,364.49,341.47Z" transform="translate(-244.74 -300.2)"/><path class="cls-3" d="M341.83,365.07a9.74,9.74,0,0,1-9.74,9.74H293a9.74,9.74,0,0,1-9.74-9.74h0a9.74,9.74,0,0,1,9.74-9.75h39a9.74,9.74,0,0,1,9.74,9.75Z" transform="translate(-244.74 -300.2)"/><path class="cls-3" d="M316.81,396a8.07,8.07,0,0,1-8.07,8.07H287.49a8.07,8.07,0,0,1-8.07-8.07h0a8.07,8.07,0,0,1,8.07-8.07h21.24a8.07,8.07,0,0,1,8.07,8.07Z" transform="translate(-244.74 -300.2)"/></svg>